<svg xmlns="http://www.w3.org/2000/svg" xmlns:xlink="http://www.w3.org/1999/xlink" width="2307" height="1655" viewBox="0 0 2307 1655">
  <defs>
    <clipPath id="clip-path">
      <rect id="Rectangle_11" data-name="Rectangle 11" width="1403" height="932" transform="translate(327 74)" fill="#707070"/>
    </clipPath>
    <clipPath id="clip-Web_1920_1">
      <rect width="2307" height="1655"/>
    </clipPath>
  </defs>
  <g id="Web_1920_1" data-name="Web 1920 – 1" clip-path="url(#clip-Web_1920_1)">
    <rect width="2307" height="1655" fill="#707070"/>
    <g id="Mask_Group_1" data-name="Mask Group 1" transform="translate(125 511)" clip-path="url(#clip-path)">
      <g id="undraw_conference_call_b0w6" transform="translate(327 90.522)">
        <rect id="Rectangle_2" data-name="Rectangle 2" width="1402.401" height="898.16" transform="translate(0.599 0.795)" fill="#e6e6e6"/>
        <rect id="Rectangle_3" data-name="Rectangle 3" width="1322.197" height="732.373" transform="translate(40.7 113.447)" fill="#fff"/>
        <rect id="Rectangle_4" data-name="Rectangle 4" width="1402.401" height="59.579" fill="#6c63ff"/>
        <circle id="Ellipse_1" data-name="Ellipse 1" cx="11.043" cy="11.043" r="11.043" transform="translate(33.232 19.418)" fill="#fff"/>
        <circle id="Ellipse_2" data-name="Ellipse 2" cx="11.043" cy="11.043" r="11.043" transform="translate(75.147 19.418)" fill="#fff"/>
        <circle id="Ellipse_3" data-name="Ellipse 3" cx="11.043" cy="11.043" r="11.043" transform="translate(117.061 19.418)" fill="#fff"/>
        <rect id="Rectangle_5" data-name="Rectangle 5" width="258.602" height="280.56" transform="translate(203.381 173.684)" fill="#e6e6e6"/>
        <rect id="Rectangle_6" data-name="Rectangle 6" width="258.602" height="280.56" transform="translate(572.494 173.684)" fill="#e6e6e6"/>
        <rect id="Rectangle_7" data-name="Rectangle 7" width="258.602" height="280.56" transform="translate(941.607 173.684)" fill="#e6e6e6"/>
        <rect id="Rectangle_8" data-name="Rectangle 8" width="258.602" height="280.56" transform="translate(203.381 505.027)" fill="#e6e6e6"/>
        <rect id="Rectangle_9" data-name="Rectangle 9" width="258.602" height="280.56" transform="translate(572.494 505.027)" fill="#e6e6e6"/>
        <rect id="Rectangle_10" data-name="Rectangle 10" width="258.602" height="280.56" transform="translate(941.607 505.027)" fill="#e6e6e6"/>
        <circle id="Ellipse_4" data-name="Ellipse 4" cx="43.714" cy="43.714" r="43.714" transform="translate(260.118 255.903)" fill="#ffb9b9"/>
        <path id="Path_1" data-name="Path 1" d="M615.339,656.17s5.464,25.955,5.464,28.687,25.955,15.027,25.955,15.027l23.223-4.1,8.2-24.589s-13.661-20.491-13.661-28.687Z" transform="translate(-328.583 -323.085)" fill="#ffb9b9"/>
        <path id="Path_2" data-name="Path 2" d="M594.505,587.482s13.879-30.071,40.48-23.132,41.637,17.349,42.794,27.758-.578,26.023-.578,26.023-2.891-21.4-21.4-16.771-47.42,1.157-47.42,1.157l-4.626,41.637s-5.2-7.518-10.988-2.891S576,596.736,594.505,587.482Z" transform="translate(-328.583 -323.085)" fill="#2f2e41"/>
        <path id="Path_3" data-name="Path 3" d="M771.065,766.823l-10.919-49.186c-5.477-16.4-19.125-30.044-19.125-30.044L673.654,663.9h-.017A28.292,28.292,0,0,1,653.6,690.339c-20.5,6.816-34.611-16.155-34.611-16.155l-56.946,43.452s-17.752,15.039-16.378,43.727l-1.888,15.966H776.319Z" transform="translate(-328.583 -323.085)" fill="#6c63ff"/>
        <ellipse id="Ellipse_5" data-name="Ellipse 5" cx="59.333" cy="62.984" rx="59.333" ry="62.984" transform="translate(612.624 239.146)" fill="#2f2e41"/>
        <circle id="Ellipse_6" data-name="Ellipse 6" cx="31.214" cy="31.214" r="31.214" transform="translate(693.388 335.015)" fill="#2f2e41"/>
        <path id="Path_4" data-name="Path 4" d="M702.863,324.426,719.585,367.9l-42.36,17.838-3.72-8.431-13-29.471Z" fill="#9f616a"/>
        <circle id="Ellipse_7" data-name="Ellipse 7" cx="37.345" cy="37.345" r="37.345" transform="translate(632.075 278.163)" fill="#9f616a"/>
        <path id="Path_5" data-name="Path 5" d="M967.479,634.5c23.472-15.663,30.489-19.407,57.394-13.357l1.614-39.251-69.526,14.585Z" transform="translate(-328.583 -323.085)" fill="#2f2e41"/>
        <path id="Path_6" data-name="Path 6" d="M1118.392,723.3l-1.03.12a.661.661,0,0,0-.086-.1c-4.086-4.086-23.589-11.52-38.13-16.67h-.017c-9.236-3.279-16.464-5.631-16.464-5.631l-17.58-18.078c-4.429,4.979-13.786,8.824-22.679,11.537a178.089,178.089,0,0,1-20.739,4.944h-.017l-3.64,11.623s-41.255,31.229-44.585,34.559h-.017v.034a1.815,1.815,0,0,0-.309,1.3v.086a151.375,151.375,0,0,0-3.193,30.3h179.646V766.788C1129.551,752.3,1118.392,723.3,1118.392,723.3Z" transform="translate(-328.583 -323.085)" fill="#575a89"/>
        <path id="Path_7" data-name="Path 7" d="M1448.739,777.33h-88.828l-4.893-48.259-.292-2.936-.6-5.82-2.455-24.327-3.073,26.13-6.49,55.212h-16.138l.6-17.185.6-17.426.257-7.022,3.313-95.523a68.2,68.2,0,0,1,13.614-42.045,53.122,53.122,0,0,1,42.9-20.756,54.663,54.663,0,0,1,43.641,21.512,69.121,69.121,0,0,1,14.266,42.68l1.528,57.822Z" transform="translate(-328.583 -323.085)" fill="#2f2e41"/>
        <circle id="Ellipse_8" data-name="Ellipse 8" cx="39.071" cy="39.071" r="39.071" transform="translate(1019.607 273.13)" fill="#fbbebe"/>
        <path id="Path_8" data-name="Path 8" d="M1367.725,663.193s11.163,37.676,0,48.839-13.954,15.349-13.954,15.349l32.094,43.257,55.816-68.374s-39.071-11.163-29.3-41.862Z" transform="translate(-328.583 -323.085)" fill="#fbbebe"/>
        <path id="Path_9" data-name="Path 9" d="M1159.676,454.244h-32.963l-.549-5.648-.5-5.219,15.177-1.906,18.3-2.283.206,5.854Z" fill="#fbbebe"/>
        <path id="Path_10" data-name="Path 10" d="M1490.52,767.848s-5.582-34.885-9.768-48.839-8.372-13.954-8.372-13.954h0v0c-4.927-4.927-16.773-5.8-25.683-5.665-6.249.069-11.056.618-11.056.618l-49.77,52.5L1360.8,719.181v-.017a36.473,36.473,0,0,0-6.678,1.15,44.231,44.231,0,0,0-5.528,1.8,75.85,75.85,0,0,0-21.168,13.58h-.017c-3.605,3.245-5.734,5.631-5.734,5.631a163.421,163.421,0,0,0-12.4,36h159.491l.36-7.176v-.014Z" transform="translate(-328.583 -323.085)" fill="#6c63ff"/>
        <path id="Path_11" data-name="Path 11" d="M1354.47,629.006c25.234-13.6,35.6-13.029,66.979,0l8.371-20.4a14.5,14.5,0,0,0-14.487-14.487h-56.146a14.5,14.5,0,0,0-14.487,14.487Z" transform="translate(-328.583 -323.085)" fill="#2f2e41"/>
        <path id="Path_12" data-name="Path 12" d="M657.847,896.019a10.292,10.292,0,0,0-5.969,1.333,15.572,15.572,0,0,0-4.038,5.33A63.753,63.753,0,0,1,630.472,922.3c-5.16,3.78-11.721,8.494-10.838,15.464a20.9,20.9,0,0,0,2.515,6.528c4.761,9.61,17.752,17.036,16.474,28,4.73-7.918-1.6-11.834,3.133-19.752,2.253-3.771,6.165-8.027,9.566-5.659,1.139.793,1.886,2.215,3.072,2.911,2.829,1.66,5.839-1.514,8.343-3.761,8.635-7.752,20.915-5.721,31.661-3.306,5.073,1.14,10.645,2.636,13.644,7.485,3.943,6.375-3.746,13.26-5.689,20.467a3.927,3.927,0,0,0,4.215,4.888c3.224-.318,7.044-.579,7.235-1.994,4.057.144,9.027-.315,10.765-4.539a17.761,17.761,0,0,0,.833-5.166c.638-7.1,3.649-13.569,5.645-20.322s2.862-14.668-.5-20.655a23.894,23.894,0,0,0-4.411-5.361C707.025,899.041,681.9,895.992,657.847,896.019Z" transform="translate(-328.583 -323.085)" fill="#2f2e41"/>
        <path id="Path_13" data-name="Path 13" d="M642.779,986.145s4.155,34.626-11.08,37.4,13.85,49.862,13.85,49.862l69.253,8.31-16.621-55.4s-11.08-4.155-4.155-31.856S642.779,986.145,642.779,986.145Z" transform="translate(-328.583 -323.085)" fill="#9f616a"/>
        <circle id="Ellipse_9" data-name="Ellipse 9" cx="41.551" cy="41.551" r="41.551" transform="translate(303.806 602.81)" fill="#9f616a"/>
        <path id="Path_14" data-name="Path 14" d="M602.423,1108.673c7.348-28.894,17.494-67.814,17.494-67.814s3.949.807,10.164,1.717a240.568,240.568,0,0,0,27.4,2.489c11.743.326,24.1-.446,33.667-3.76a31.523,31.523,0,0,0,9.94-5.3,19.164,19.164,0,0,0,3.331-3.451c16.619-22.164,23.537,62.32,23.537,62.32l1.288,13.8Z" transform="translate(-328.583 -323.085)" fill="#6c63ff"/>
        <path id="Path_15" data-name="Path 15" d="M735.184,1197.947q-.824,0-1.648.052l.79-1.477C734.6,1196.985,734.875,1197.466,735.184,1197.947Z" transform="translate(-328.583 -323.085)" fill="#ffb8b8"/>
        <path id="Path_16" data-name="Path 16" d="M659.871,906.89a9.431,9.431,0,0,0-4.859.943,11.327,11.327,0,0,0-3.287,3.767,47.853,47.853,0,0,1-14.138,13.866c-4.2,2.672-9.542,6-8.823,10.93a13.67,13.67,0,0,0,2.048,4.614,36.293,36.293,0,0,1,4.41,22.621l11.551-16.789c1.834-2.665,5.019-5.674,7.787-4,.927.56,1.536,1.566,2.5,2.057,2.3,1.173,4.753-1.07,6.791-2.659,7.029-5.479,17.026-4.044,25.773-2.336,4.13.806,8.666,1.863,11.107,5.29,4.057,5.695-.179,13.924,2.188,20.5a6.044,6.044,0,0,0,2.5-3.991c3.3.1,7.349-.223,8.763-3.208a11.055,11.055,0,0,0,.678-3.651c.519-5.015,2.971-9.59,4.595-14.364s2.33-10.367-.41-14.6a17.664,17.664,0,0,0-3.591-3.789C699.9,909.026,679.455,906.871,659.871,906.89Z" transform="translate(-328.583 -323.085)" fill="#2f2e41"/>
        <path id="Path_17" data-name="Path 17" d="M655.936,1042.233c-9.477-10.833-15.108-26.628-15.365-27.331v-.017s-15.108-8.653-19.263-.343-42.937,29.083-47.092,29.083a.548.548,0,0,1-.1.035c-1.648.549-22.284,8.052-27.589,35.984a209.056,209.056,0,0,0-2.3,29.031H657.172c1.167-12.241,2.043-23.692,2.386-33.581.5-13.786.017-24.5-2.077-30.027A8.745,8.745,0,0,0,655.936,1042.233Z" transform="translate(-328.583 -323.085)" fill="#2f2e41"/>
        <path id="Path_18" data-name="Path 18" d="M753.056,1050.027c-.069-.326-.12-.6-.172-.858a6.388,6.388,0,0,0-.927-2.06.133.133,0,0,1-.017-.051c-8-12.4-59.453-29.46-59.453-29.46l-1.923,6.644s.24,6.558.584,17.065c.343,9.837.755,23.125,1.15,37.718.275,9.528.515,19.623.738,29.649H770A449.453,449.453,0,0,0,753.056,1050.027Z" transform="translate(-328.583 -323.085)" fill="#2f2e41"/>
        <path id="Path_19" data-name="Path 19" d="M1473.152,1108.673l5.889-28.774,5.477-2.318.034.017c.5.189,6.455,2.713,6.455,12.275,0,1.923-.292,8.842-.773,18.8Z" transform="translate(-328.583 -323.085)" fill="#575a89"/>
        <circle id="Ellipse_10" data-name="Ellipse 10" cx="47.823" cy="47.823" r="47.823" transform="translate(1034.894 589.44)" fill="#ffb8b8"/>
        <path id="Path_20" data-name="Path 20" d="M1112.606,665.159l-3.986,81.7-61.771-35.866,7.969-45.83Z" fill="#ffb8b8"/>
        <path id="Path_21" data-name="Path 21" d="M1130.542,750.839l-4.052,34.748H1094.06l-35.194-67.625-9.923-19.039-4.755-3.107,5.511-1.253,4.344,3.142,48.6,35.212,7.794-23.4.206-.6,1.957-5.889Z" fill="#6c63ff"/>
        <path id="Path_22" data-name="Path 22" d="M1382.407,913.52s5.978-29.889,39.852-23.911l-3.985,1.993s31.882-3.985,27.9,13.948c0,0,25.9,15.941,19.926,33.874a202.75,202.75,0,0,0-7.971,31.882l-5.978-5.978s-5.978-39.852-41.845-35.867c-26.9,2.989-37.86,15.692-40.662,24.845a80.845,80.845,0,0,1-4.923,12.523l-2.238.491S1350.525,923.483,1382.407,913.52Z" transform="translate(-328.583 -323.085)" fill="#2f2e41"/>
        <path id="Path_23" data-name="Path 23" d="M1484.552,1077.6l-.034-.017-25.391-23.589v-15.932l-19.606-15.451-.292,9.391-2.026,63.848-32.6-44.843-21.975-30.216-3.949-5.408.961-5.065-12.172,13.786-44.053,33.048-3.777,2.833a120.153,120.153,0,0,0-11.949,13.94c-1.185,1.768-6.575,15.846-13.6,34.748h196.145c.481-9.957.773-16.876.773-18.8C1491.007,1080.311,1485.05,1077.788,1484.552,1077.6Z" transform="translate(-328.583 -323.085)" fill="#2f2e41"/>
        <path id="Path_24" data-name="Path 24" d="M1026.443,907.817h0c-32.406,0-58.676,29.154-58.676,65.118v45.692H981.82l8.136-16.929-2.034,16.929h90.326l7.4-15.39-1.849,15.39h10.17V982.751C1093.965,941.365,1063.736,907.817,1026.443,907.817Z" transform="translate(-328.583 -323.085)" fill="#2f2e41"/>
        <path id="Path_25" data-name="Path 25" d="M979.09,1108.673H940.926l-.361-31.126c-.017-.326-.017-.635-.017-.961l7.64-8.6.137-.155,29.169,18.473Z" transform="translate(-328.583 -323.085)" fill="#d0cde1"/>
        <circle id="Ellipse_11" data-name="Ellipse 11" cx="41.772" cy="41.772" r="41.772" transform="translate(650.897 605.615)" fill="#fbbebe"/>
        <path id="Path_26" data-name="Path 26" d="M997.3,995.534s12.253,63.493,6.684,70.177,59.038-12.253,59.038-12.253-21.164-43.443-10.025-67.949Z" transform="translate(-328.583 -323.085)" fill="#fbbebe"/>
        <path id="Path_27" data-name="Path 27" d="M1110.632,1038.473h-.017a9.59,9.59,0,0,0-4.79-4.67c-8.189-3.451-15.245-6.095-21.048-8.1a44.51,44.51,0,0,0-31.486.979c-.979.395-1.94.824-2.884,1.3,0,0-40.843,7.777-45.7,6.8-.361-.069-.738-.12-1.1-.155a19.22,19.22,0,0,0-2.215-.189,48.936,48.936,0,0,0-27.125,6.73c-13.408,7.777-33.289,21.563-33.7,34.988l-.378.429.378,32.087h179.269c.361-30.748.567-53.856.567-55.419C1120.4,1048.4,1110.632,1038.473,1110.632,1038.473Z" transform="translate(-328.583 -323.085)" fill="#6c63ff"/>
        <path id="Path_28" data-name="Path 28" d="M1043.124,925.754a30.773,30.773,0,0,0-24.281-12.391h-1.152c-22.211,0-40.217,20.1-40.217,44.892h7.442l1.2-9.149,1.762,9.149h44.14l3.7-7.74-.925,7.74h8.685q6.078,30.186-17.467,60.371H1040.8l7.4-15.48-1.849,15.48h28.2l5.547-35.6C1080.1,956.36,1064.6,933.75,1043.124,925.754Z" transform="translate(-328.583 -323.085)" fill="#2f2e41"/>
        <circle id="Ellipse_12" data-name="Ellipse 12" cx="21.977" cy="21.977" r="21.977" transform="translate(700.671 562.464)" fill="#2f2e41"/>
      </g>
    </g>
    <text id="InTouch" transform="translate(974 368)" fill="#fff" font-size="160" font-family="Inconsolata, monospace" font-weight="700"><tspan x="0" y="0">InTouch</tspan></text>
    <g id="Ellipse_13" data-name="Ellipse 13" transform="translate(717 201)" fill="#fff" stroke="#707070" stroke-width="1">
      <circle cx="108.5" cy="108.5" r="108.5" stroke="none"/>
      <circle cx="108.5" cy="108.5" r="108" fill="none"/>
    </g>
    <line id="Line_1" data-name="Line 1" y1="190" x2="233" transform="translate(741.5 191.5)" fill="none" stroke="#707070" stroke-width="25"/>
  </g>
</svg>
