<svg xmlns="http://www.w3.org/2000/svg" xmlns:xlink="http://www.w3.org/1999/xlink" width="2307" height="1655" viewBox="0 0 2307 1655">
  <defs>
    <clipPath id="clip-Web_1920_1">
      <rect width="2307" height="1655"/>
    </clipPath>
  </defs>
  <g id="Web_1920_1" data-name="Web 1920 – 1" clip-path="url(#clip-Web_1920_1)">
    <rect width="2307" height="1655" fill="#ccc"/>
    <g id="undraw_web_shopping_dd4l" transform="translate(504 572)">
      <rect id="Rectangle_1" data-name="Rectangle 1" width="954.383" height="611.228" transform="translate(0.408 0.541)" fill="#e6e6e6"/>
      <rect id="Rectangle_2" data-name="Rectangle 2" width="899.801" height="498.405" transform="translate(27.698 77.204)" fill="#fff"/>
      <rect id="Rectangle_3" data-name="Rectangle 3" width="954.383" height="40.546" fill="#f9a826"/>
      <circle id="Ellipse_1" data-name="Ellipse 1" cx="7.515" cy="7.515" r="7.515" transform="translate(22.615 13.214)" fill="#fff"/>
      <circle id="Ellipse_2" data-name="Ellipse 2" cx="7.515" cy="7.515" r="7.515" transform="translate(51.14 13.214)" fill="#fff"/>
      <circle id="Ellipse_3" data-name="Ellipse 3" cx="7.515" cy="7.515" r="7.515" transform="translate(79.664 13.214)" fill="#fff"/>
      <rect id="Rectangle_4" data-name="Rectangle 4" width="175.988" height="190.931" transform="translate(138.408 118.198)" fill="#e6e6e6"/>
      <rect id="Rectangle_5" data-name="Rectangle 5" width="175.988" height="190.931" transform="translate(389.603 118.198)" fill="#e6e6e6"/>
      <rect id="Rectangle_6" data-name="Rectangle 6" width="175.988" height="190.931" transform="translate(640.797 118.198)" fill="#e6e6e6"/>
      <rect id="Rectangle_7" data-name="Rectangle 7" width="175.988" height="190.931" transform="translate(138.408 343.689)" fill="#e6e6e6"/>
      <rect id="Rectangle_8" data-name="Rectangle 8" width="175.988" height="190.931" transform="translate(389.603 343.689)" fill="#e6e6e6"/>
      <rect id="Rectangle_9" data-name="Rectangle 9" width="175.988" height="190.931" transform="translate(640.797 343.689)" fill="#e6e6e6"/>
      <path id="Path_1" data-name="Path 1" d="M459.259,399.713,491.414,387l3.739,63.562s6.73,19.443,4.487,26.92c0,0,1.5,12.712-2.243,13.46s-14.208,2.243-14.956,1.5-.748-2.991-.748-2.991-7.478,5.235-8.226,11.217c0,0-31.407,9.721-32.155.748s15.7-16.451,15.7-16.451l12.712-19.442Z" transform="translate(-27.12 -6.953)" fill="#fff"/>
      <path id="Path_2" data-name="Path 2" d="M505.228,399.713,537.383,387l3.739,63.562s6.73,19.443,4.487,26.92c0,0,1.5,12.712-2.243,13.46s-14.208,2.243-14.956,1.5-.748-2.991-.748-2.991-7.478,5.235-8.226,11.217c0,0-31.407,9.721-32.155.748s15.7-16.451,15.7-16.451L515.7,465.518Z" transform="translate(-5.041 -6.953)" fill="#fff"/>
      <path id="Path_3" data-name="Path 3" d="M522.267,230.6s-6.847,19.131,1.086,27.758l-6.613,22.726s23.5,70.494,16.784,80.341c0,0-25.065,12.532-75.194-4.476l20.365-79-2.909-33.345,4.028-15.665,8.952-.9s-5.371,20.141,4.476,23.274S512.7,228.55,512.7,228.55Z" transform="translate(-18.934 -83.297)" fill="#3f3d56"/>
      <path id="Path_4" data-name="Path 4" d="M287.921,354.49l8.64,3.535,41.237-54.2,12.96,63.623,8.64-1.571c5.543-54.852,10.062-110.8,4.516-137.261l-32.008-1.375-14.531,46.343-7.069,31.419Z" transform="translate(-100.781 -83.684)" fill="#fff"/>
      <path id="Path_5" data-name="Path 5" d="M645.824,227.875s-11.792,16.393-11.217,23.008,8.053,114.466,8.053,114.466l17.544.863-5.177-77.652,4.314-20.995,10.641,97.785,21.57.575L672.283,239.092l-3.739-11.216Z" transform="translate(65.721 -83.38)" fill="#fff"/>
      <path id="Path_6" data-name="Path 6" d="M722.978,411.058c-3.131-3.757-8.513-5.788-13.682-6.886.155-.47-15.718-3.748-15.984-3.073l-5.982-4.765-18.378,9.544-10.328-7.031-4.8,1.7c.2-.846-14.893,1.767-14.893,1.767-2.882.1-6.564.284-10.685.6-14.431,1.11-15.542,38.484-15.542,38.484a58.994,58.994,0,0,1,20.892-4.374l3.9,44.708c20.062-1.721,41.1.282,62.906,5.181l10.227-35.144,23.817-9.262S730.38,419.939,722.978,411.058Z" transform="translate(55.212 -2.47)" fill="#3f3d56"/>
      <path id="Path_7" data-name="Path 7" d="M371.421,395.837c-2.58-3.1-7.014-4.769-11.273-5.674.128-.387-12.951-3.089-13.17-2.532l-4.929-3.926-15.143,7.864-8.51-5.793-3.953,1.4c.161-.7-12.272,1.456-12.272,1.456-2.375.085-5.408.234-8.8.5-11.891.915-12.806,31.709-12.806,31.709a48.606,48.606,0,0,1,17.214-3.6l3.214,90.171c16.53-1.418,33.867.232,51.832,4.269l8.426-82.289,19.624-7.631S377.518,403.156,371.421,395.837Z" transform="translate(-104.315 -8.536)" fill="#fff"/>
      <path id="Path_8" data-name="Path 8" d="M686.451,658.269,567.4,682.637l-2.713-.277L460.071,671.8V539.221L588.14,517.569l92.9,10.834.034.588v.277Z" transform="translate(220.97 248.585)" fill="#e6e6e6"/>
      <path id="Path_9" data-name="Path 9" d="M652.507,654.564,533.458,678.931l-2.713-.277V542.739l116.387-17.454Z" transform="translate(254.914 252.291)" opacity="0.1"/>
      <path id="Path_10" data-name="Path 10" d="M681.076,529.268l-.034.034L564.689,546.445l-104.618-7.224L588.14,517.569l92.9,10.834.034.588Z" transform="translate(220.97 248.585)" opacity="0.05"/>
      <rect id="Rectangle_10" data-name="Rectangle 10" width="72.534" height="34.047" transform="matrix(0.998, 0.065, -0.065, 0.998, 695.443, 834.083)" fill="#fff"/>
      <rect id="Rectangle_11" data-name="Rectangle 11" width="38.488" height="11.842" transform="matrix(0.998, 0.065, -0.065, 0.998, 711.707, 846.27)" fill="#f9a826"/>
      <path id="Path_11" data-name="Path 11" d="M795.451,658.269,676.4,682.637l-2.713-.277L569.071,671.8V539.221L697.14,517.569l92.9,10.834.034.588v.277Z" transform="translate(273.322 248.585)" fill="#f9a826"/>
      <path id="Path_12" data-name="Path 12" d="M761.507,654.564,642.458,678.931l-2.713-.277V542.739l116.387-17.454Z" transform="translate(307.266 252.291)" opacity="0.1"/>
      <path id="Path_13" data-name="Path 13" d="M790.076,529.268l-.034.034L673.689,546.445l-104.618-7.224L697.14,517.569l92.9,10.834.034.588Z" transform="translate(273.322 248.585)" opacity="0.05"/>
      <rect id="Rectangle_12" data-name="Rectangle 12" width="72.534" height="34.047" transform="matrix(0.998, 0.065, -0.065, 0.998, 856.795, 834.083)" fill="#fff"/>
      <rect id="Rectangle_13" data-name="Rectangle 13" width="38.488" height="11.842" transform="matrix(0.998, 0.065, -0.065, 0.998, 873.06, 846.27)" fill="#f9a826"/>
      <path id="Path_14" data-name="Path 14" d="M950.23,295.884s21,54.262-17.5,54.262,59.513,54.262,98.022,22.755,15.753-33.257,15.753-33.257-50.762,5.251-49.011-40.259Z" transform="translate(204.688 -50.716)" fill="#ffb8b8"/>
      <circle id="Ellipse_4" data-name="Ellipse 4" cx="61.905" cy="61.905" r="61.905" transform="translate(1120.375 137.69)" fill="#2f2e41"/>
      <path id="Path_15" data-name="Path 15" d="M963.876,448.422,897.36,619.96s-33.256,52.512-21,105.024S922.28,873.067,922.28,873.067s25.435,6.472,23.685-16.283,1.091-133.076-25.165-162.832L1026.89,572.7l3.5,138.281s-7,63.014-5.251,91.02,5.251,75.267,5.251,75.267l21-3.5s28.335-128.925,24.835-170.934c0,0,65.034-204.119-1.48-253.13Z" transform="translate(180.54 22.547)" fill="#2f2e41"/>
      <path id="Path_16" data-name="Path 16" d="M917.369,741.1s-8.564-2.181-9.551,5.674-19,42.785-.193,44.534,25.313-15.846,28.463-28.217,4.344-13.08,6.974-15.45,8.89-15.355,1.035-16.342-11.882-8.712-11.882-8.712S929.739,744.251,917.369,741.1Z" transform="translate(192.763 154.228)" fill="#2f2e41"/>
      <path id="Path_17" data-name="Path 17" d="M993.841,731.329s-15.883-2.269-14.749,3.4-2.269,29.5,0,31.766,6.807,6.807,6.807,10.211,1.135,14.749,20.421,11.345,14.749-20.421,13.614-22.69-14.749-13.614-13.614-20.421S1000.648,726.792,993.841,731.329Z" transform="translate(230.802 157.925)" fill="#2f2e41"/>
      <circle id="Ellipse_5" data-name="Ellipse 5" cx="42.878" cy="42.878" r="42.878" transform="translate(1140.166 182.535)" fill="#ffb8b8"/>
      <path id="Path_18" data-name="Path 18" d="M1027.279,323s14.956,29.589-30.123,30.428c-13.858.258-30.339-9.841-37.142-21.917-4.008-7.114-5.021,2.711-11.5,1.991-12.274-1.364-25.386,3.728-37.12,9.967a7.4,7.4,0,0,0-3.615,8.683c8.9,29.523,34.309,171.538,38.231,179.27,10.017,19.745,118.424-13.323,118.424-13.323,1.486-53.726-18.015-128.891,16.283-183.557A65.331,65.331,0,0,0,1027.279,323Z" transform="translate(196.78 -38.444)" fill="#575a89"/>
      <path id="Path_19" data-name="Path 19" d="M853.464,135.341l-31.416-16.455-43.383,6.731-8.975,39.644,22.344-.86,6.241-14.565v14.325l10.31-.4,5.983-23.187,3.741,24.684,36.649-.749Z" transform="translate(369.678 57.1)" fill="#2f2e41"/>
      <circle id="Ellipse_6" data-name="Ellipse 6" cx="24.979" cy="24.979" r="24.979" transform="translate(1160.559 104.023)" fill="#2f2e41"/>
      <path id="Path_20" data-name="Path 20" d="M943.564,220.378a24.985,24.985,0,0,1,21.177-24.692,24.979,24.979,0,1,0,0,49.384A24.985,24.985,0,0,1,943.564,220.378Z" transform="translate(210.479 -98.979)" fill="#2f2e41"/>
      <path id="Path_21" data-name="Path 21" d="M950.451,529.27,831.4,553.637l-2.713-.277L724.071,542.8V410.221L852.14,388.569l92.9,10.834.034.588v.277Z" transform="translate(347.767 186.628)" fill="#e6e6e6"/>
      <path id="Path_22" data-name="Path 22" d="M916.507,525.564,797.458,549.931l-2.713-.277V413.739l116.387-17.454Z" transform="translate(381.711 190.333)" opacity="0.1"/>
      <path id="Path_23" data-name="Path 23" d="M945.076,400.268l-.034.034L828.689,417.445l-104.618-7.224L852.14,388.569l92.9,10.834.034.588Z" transform="translate(347.767 186.628)" opacity="0.05"/>
      <rect id="Rectangle_14" data-name="Rectangle 14" width="72.534" height="34.047" transform="matrix(0.998, 0.065, -0.065, 0.998, 1086.242, 643.125)" fill="#fff"/>
      <rect id="Rectangle_15" data-name="Rectangle 15" width="38.488" height="11.842" transform="matrix(0.998, 0.065, -0.065, 0.998, 1102.507, 655.313)" fill="#f9a826"/>
      <path id="Path_24" data-name="Path 24" d="M922.76,510.457S879,545.465,898.255,557.718s42.01-47.261,42.01-47.261Z" transform="translate(190.008 52.342)" fill="#ffb8b8"/>
      <path id="Path_25" data-name="Path 25" d="M923.284,335.381c-2.267-2.555-30.89,12.043-26.645,31.086l2,131.945s-10.5,108.524,15.754,108.524,23.158,3.649,26.658-5.1,4.441-82.9,4.441-82.9Z" transform="translate(191.377 -31.885)" fill="#575a89"/>
      <path id="Path_26" data-name="Path 26" d="M1005.95,502.457s22.755,59.513,42.009,47.261-24.506-47.261-24.506-47.261Z" transform="translate(244.085 48.5)" fill="#ffb8b8"/>
      <path id="Path_27" data-name="Path 27" d="M1014.3,512.418s-10.9,72.664-7.4,81.416.4,5.1,26.658,5.1,15.753-108.524,15.753-108.524l2-131.945c4.245-19.043-24.379-33.641-26.645-31.086L999.5,413.238Z" transform="translate(240.987 -35.728)" fill="#575a89"/>
    </g>
    <text id="DressFit" transform="translate(890 345)" fill="#3f3d56" font-size="160" font-family="Inconsolata, monospace" font-weight="700"><tspan x="0" y="0">DressFit</tspan></text>
    <path id="Path_28" data-name="Path 28" d="M0,0H115.829V10H0Z" transform="translate(719 274)" fill="#3f3d56"/>
    <path id="Polygon_1" data-name="Polygon 1" d="M63,0l63,141H0Z" transform="translate(714 228)" fill="#fff"/>
    <circle id="Ellipse_7" data-name="Ellipse 7" cx="34" cy="34" r="34" transform="translate(743 185)" fill="#3f3d56"/>
    <rect id="Rectangle_17" data-name="Rectangle 17" width="12" height="30" transform="translate(749 369)" fill="#3f3d56"/>
    <rect id="Rectangle_18" data-name="Rectangle 18" width="12" height="30" transform="translate(793 369)" fill="#3f3d56"/>
  </g>
</svg>
