<svg xmlns="http://www.w3.org/2000/svg" xmlns:xlink="http://www.w3.org/1999/xlink" width="2307" height="1655" viewBox="0 0 2307 1655">
  <defs>
    <linearGradient id="linear-gradient" x1="0.141" y1="1.022" x2="0.928" y2="-0.011" gradientUnits="objectBoundingBox">
      <stop offset="0" stop-color="gray" stop-opacity="0.251"/>
      <stop offset="0.54" stop-color="gray" stop-opacity="0.122"/>
      <stop offset="1" stop-color="gray" stop-opacity="0.102"/>
    </linearGradient>
    <linearGradient id="linear-gradient-2" x1="0.5" y1="1" x2="0.5" y2="0" xlink:href="#linear-gradient"/>
    <linearGradient id="linear-gradient-3" x1="-5.841" y1="1" x2="-5.841" y2="0" xlink:href="#linear-gradient"/>
    <linearGradient id="linear-gradient-4" x1="0.5" y1="1" x2="0.5" y2="0" xlink:href="#linear-gradient"/>
    <linearGradient id="linear-gradient-5" x1="8.023" y1="1" x2="8.023" y2="0" xlink:href="#linear-gradient"/>
    <clipPath id="clip-custom_1">
      <rect width="2307" height="1655"/>
    </clipPath>
  </defs>
  <g id="custom_1" data-name="custom – 1" clip-path="url(#clip-custom_1)">
    <rect width="2307" height="1655" fill="#967bff"/>
    <g id="undraw_online_messaging_9ro6_1_" data-name="undraw_online_messaging_9ro6 (1)" transform="translate(259.5 644)">
      <ellipse id="Ellipse_1" data-name="Ellipse 1" cx="398.748" cy="18" rx="398.748" ry="18" transform="translate(0 705.617)" fill="#e6e6e6"/>
      <path id="Path_1" data-name="Path 1" d="M885.252,252.139h-4V142.593a63.4,63.4,0,0,0-63.4-63.4H585.765a63.4,63.4,0,0,0-63.4,63.4V743.568a63.4,63.4,0,0,0,63.4,63.4H817.851a63.4,63.4,0,0,0,63.4-63.4V330.115h4Z" transform="translate(-201.252 -79.191)" fill="#3f3d56"/>
      <path id="Path_2" data-name="Path 2" d="M820.409,95.687H790.114a22.495,22.495,0,0,1-20.827,30.991H636.328A22.495,22.495,0,0,1,615.5,95.686h-28.3a47.348,47.348,0,0,0-47.348,47.348V743.127a47.348,47.348,0,0,0,47.348,47.348h233.2a47.348,47.348,0,0,0,47.348-47.348V143.034a47.348,47.348,0,0,0-47.348-47.348Z" transform="translate(-201.252 -79.191)" fill="#fff"/>
      <path id="Path_3" data-name="Path 3" d="M716.047,747.97a89.859,89.859,0,1,1,66.448-29.413l18.765,21.036-9.364,3.972c-14.486,6.145-28.662.166-36.619-4.606a89.971,89.971,0,0,1-39.23,9.012Zm0-164.948a75.184,75.184,0,1,0,36.144,141.124l4.009-2.2,3.727,2.652a39.423,39.423,0,0,0,14.224,6.508l-11.808-13.237L767.519,713a74.477,74.477,0,0,0,23.712-54.8,75.27,75.27,0,0,0-75.184-75.184Z" transform="translate(-201.252 -79.191)" fill="#e6e6e6"/>
      <path id="Path_4" data-name="Path 4" d="M798.52,658.207a82.441,82.441,0,1,0-42.82,72.328c5.7,4.056,19.609,12.147,33.348,6.319L772.51,718.315A82.24,82.24,0,0,0,798.52,658.207Z" transform="translate(-201.252 -79.191)" fill="#fff"/>
      <rect id="Rectangle_1" data-name="Rectangle 1" width="58.932" height="5.473" transform="translate(472.318 562.153)" fill="#afafaf"/>
      <rect id="Rectangle_2" data-name="Rectangle 2" width="102.714" height="5.473" transform="translate(472.318 581.085)" fill="#e6e6e6"/>
      <rect id="Rectangle_3" data-name="Rectangle 3" width="102.613" height="5.473" transform="translate(472.318 600.016)" fill="#e6e6e6"/>
      <path id="Path_5" data-name="Path 5" d="M716.047,348.97a89.859,89.859,0,1,1,66.448-29.413l18.765,21.036-9.364,3.972c-14.486,6.145-28.662.166-36.619-4.606A89.972,89.972,0,0,1,716.047,348.97Zm0-164.948a75.184,75.184,0,1,0,36.144,141.124l4.009-2.2,3.727,2.652a39.423,39.423,0,0,0,14.224,6.508l-11.808-13.237L767.519,314a74.477,74.477,0,0,0,23.712-54.8,75.27,75.27,0,0,0-75.184-75.184Z" transform="translate(-201.252 -79.191)" fill="#e6e6e6"/>
      <path id="Path_6" data-name="Path 6" d="M798.52,259.207a82.441,82.441,0,1,0-42.82,72.328c5.7,4.056,19.609,12.147,33.348,6.319L772.51,319.315A82.24,82.24,0,0,0,798.52,259.207Z" transform="translate(-201.252 -79.191)" fill="#fff"/>
      <rect id="Rectangle_4" data-name="Rectangle 4" width="58.932" height="5.473" transform="translate(472.318 163.153)" fill="#afafaf"/>
      <rect id="Rectangle_5" data-name="Rectangle 5" width="102.714" height="5.473" transform="translate(472.318 182.085)" fill="#e6e6e6"/>
      <rect id="Rectangle_6" data-name="Rectangle 6" width="102.613" height="5.473" transform="translate(472.318 201.016)" fill="#e6e6e6"/>
      <circle id="Ellipse_2" data-name="Ellipse 2" cx="13" cy="13" r="13" transform="translate(616.031 251.446)" fill="#e6e6e6"/>
      <circle id="Ellipse_3" data-name="Ellipse 3" cx="13" cy="13" r="13" transform="translate(616.031 650.446)" fill="#e6e6e6"/>
      <path id="Path_7" data-name="Path 7" d="M168.77,237.79l-6.232,31.164,29.086,21.814,13.5-40.512Z" fill="#9f616a"/>
      <circle id="Ellipse_4" data-name="Ellipse 4" cx="28.047" cy="28.047" r="28.047" transform="translate(164.096 210.263)" fill="#9f616a"/>
      <path id="Path_8" data-name="Path 8" d="M332.626,532.011s21.815,104.918,24.931,115.306,0,11.427,0,11.427-4.155,3.116-1.039,4.155-6.233,6.233-6.233,6.233-4.155,19.737-6.233,23.892-11.427,30.124-12.466,30.124-6.233,15.582-6.233,15.582,12.465,19.737,25.97,11.427l5.194-9.349,41.551-61.289s17.659-19.737,13.5-43.629l2.078,24.931,4.155,81.026s-11.427,7.272-3.116,18.7c0,0,21.815,7.272,31.164-4.155,0,0,2.078-6.233-1.039-9.349s-3.116-3.116-1.039-5.194,5.194-6.233,5.194-8.31v-8.31l5.194-94.53s-14.543-95.569-25.97-100.762S332.626,532.011,332.626,532.011Z" transform="translate(-201.252 -79.191)" fill="#2f2e41"/>
      <path id="Path_9" data-name="Path 9" d="M415.729,756.389s-13.5,25.97-2.078,29.086a92.931,92.931,0,0,0,21.815,3.116s29.086,22.853,40.513,11.427-5.194-20.776-5.194-20.776-20.776-14.543-21.815-18.7S415.729,756.389,415.729,756.389Z" transform="translate(-201.252 -79.191)" fill="#2f2e41"/>
      <path id="Path_10" data-name="Path 10" d="M325.874,737.172s-23.337,26.541-13.3,32.835a92.933,92.933,0,0,0,19.975,9.3s21.215,30.3,35.463,22.677,1.05-21.389,1.05-21.389-15.67-19.94-15.46-24.218S325.874,737.172,325.874,737.172Z" transform="translate(-201.252 -79.191)" fill="#2f2e41"/>
      <path id="Path_11" data-name="Path 11" d="M433.388,533.05s-4.155,8.31-20.776,5.194-82.064,0-82.064,0,3.636-74.273-4.675-118.941,24.411-70.118,24.411-70.118L360.673,338.8C371.061,337.757,393,370,393,370c7.635,1.278,20,35.611,25.96,66.006,2.836,14.5,5.371,29.99,7.5,44.232C430.781,509.209,433.388,533.05,433.388,533.05Z" transform="translate(-201.252 -79.191)" fill="#afafaf"/>
      <path id="Path_12" data-name="Path 12" d="M360.583,300.037s-5.244-11.536,8.39-16.78c0,0,11.536-18.878,34.61-6.293,0,0,15.732,6.293,15.732,23.073s5.244,19.927,5.244,19.927-7.809-8.011-9.907-14.3-18.41-7.72-24.7-1.428-22.024,5.244-22.024,5.244l1.049,23.073s-5.244-13.634-7.341-13.634S357.437,300.037,360.583,300.037Z" transform="translate(-201.252 -79.191)" fill="#2f2e41"/>
      <path id="Path_13" data-name="Path 13" d="M562.274,537.495c-8.265,4.957-22.991,11.168-38.039,4.785l-9.728-4.126L534,516.3a93.1,93.1,0,1,1,28.274,21.193Zm-37.349-83.884a77.365,77.365,0,0,0,24.632,56.921l5.377,5.053-12.266,13.75a40.95,40.95,0,0,0,14.776-6.76l3.872-2.755,4.164,2.288a78.109,78.109,0,1,0-40.555-68.5Z" transform="translate(-201.252 -79.191)" fill="#afafaf"/>
      <path id="Path_14" data-name="Path 14" d="M517.353,453.611a85.639,85.639,0,1,1,44.481,75.134c-5.922,4.214-20.37,12.618-34.642,6.564l17.18-19.258a85.43,85.43,0,0,1-27.019-62.44Z" transform="translate(-201.252 -79.191)" fill="#fff"/>
      <path id="Path_15" data-name="Path 15" d="M673.555,453.179a85.676,85.676,0,0,0-78.1-85.335c2.49-.219,5.015-.337,7.567-.337a85.673,85.673,0,0,1,0,171.346c-2.548,0-5.068-.12-7.56-.338A85.677,85.677,0,0,0,673.555,453.179Z" transform="translate(-201.252 -79.191)" opacity="0.1"/>
      <rect id="Rectangle_7" data-name="Rectangle 7" width="61.218" height="5.685" transform="translate(352.58 356.903)" fill="#afafaf"/>
      <rect id="Rectangle_8" data-name="Rectangle 8" width="106.698" height="5.685" transform="translate(352.58 376.569)" fill="#afafaf"/>
      <rect id="Rectangle_9" data-name="Rectangle 9" width="106.593" height="5.685" transform="translate(352.58 396.235)" fill="#afafaf"/>
      <path id="Path_16" data-name="Path 16" d="M426.46,480.238c-24.152-12.143-68.373-44.284-82.085-61.205-17.067-21.046,1.548-37.054,1.548-37.054,21.108-13.317,46.351,32.379,46.351,32.379l26.687,21.648C421.8,450.507,424.33,466,426.46,480.238Z" transform="translate(-201.252 -79.191)" opacity="0.2"/>
      <path id="Path_17" data-name="Path 17" d="M496.216,462.5s36.84,14.956,42.9-1.856-29.086-16.523-29.086-16.523l-13.8,1.955Z" transform="translate(-201.252 -79.191)" fill="#9f616a"/>
      <path id="Path_18" data-name="Path 18" d="M341.2,375.141s-18.611,16.009-1.553,37.052,81.326,65.66,95.451,66,51.063-13.8,51.063-13.8l14.451,2.644,2.724-27.13-21.288,2.078-60.041-6.507-34.46-27.961S362.3,361.828,341.2,375.141Z" transform="translate(-201.252 -79.191)" fill="#afafaf"/>
      <path id="Path_19" data-name="Path 19" d="M207.748,488.809,211,564.889l-8.256-76.08Z" opacity="0.2"/>
    </g>
    <g id="undraw_chatting_2yvo" transform="translate(1257 649)">
      <g id="Group_1" data-name="Group 1" opacity="0.5">
        <path id="Path_20" data-name="Path 20" d="M756.67,128.49l-332.5.81A13.66,13.66,0,0,0,410.54,143l1.51,621.89a13.66,13.66,0,0,0,13.7,13.63l332.5-.81A13.66,13.66,0,0,0,771.88,764l-1.51-621.89a13.66,13.66,0,0,0-13.7-13.62Z" transform="translate(-205 -84.5)" fill="url(#linear-gradient)"/>
      </g>
      <rect id="Rectangle_10" data-name="Rectangle 10" width="350.11" height="631.95" rx="13.64" transform="translate(210.385 53.305) rotate(-0.14)" fill="#fff"/>
      <path id="_Path_" data-name="&lt;Path&gt;" d="M678.43,153a28.38,28.38,0,0,1-27.91,24.21l-120.93.29a28.38,28.38,0,0,1-28-24.07l-64.05.16a13.3,13.3,0,0,0-13.27,13.33l1.39,573.67A13.3,13.3,0,0,0,439,753.86l306-.74a13.3,13.3,0,0,0,13.27-13.33l-1.39-573.67a13.3,13.3,0,0,0-13.33-13.27Z" transform="translate(-205 -84.5)" fill="#afafaf" opacity="0.4"/>
      <rect id="Rectangle_11" data-name="Rectangle 11" width="78.02" height="4.88" rx="2" transform="translate(343.293 76.912) rotate(-0.86)" fill="#dbdbdb"/>
      <circle id="Ellipse_5" data-name="Ellipse 5" cx="2.93" cy="2.93" r="2.93" transform="translate(434.926 74.546) rotate(-0.86)" fill="#dbdbdb"/>
      <g id="Group_2" data-name="Group 2" opacity="0.5">
        <path id="Path_21" data-name="Path 21" d="M632.07,589.13a98.85,98.85,0,1,0-154,82l.06.44a33.84,33.84,0,0,0,11.21,7.13l.13-.44c4.63,4,24.12,10.33,46.51,10.27h.49c14.18,0,29.58-2.5,43.12-9.83,0,0,.12-.26.3-.75a35.209,35.209,0,0,0,9.32-6.38q.08-.57.16-1.12a98.74,98.74,0,0,0,42.7-81.32Z" transform="translate(-205 -84.5)" fill="url(#linear-gradient-2)"/>
      </g>
      <circle id="Ellipse_6" data-name="Ellipse 6" cx="95.89" cy="95.89" r="95.89" transform="translate(232.32 408.75)" fill="#f5f5f5"/>
      <path id="Path_22" data-name="Path 22" d="M496.58,628.57s-22.85,1.87-16.8,43.49A32.82,32.82,0,0,0,490.65,679l12.85-43.49Z" transform="translate(-205 -84.5)" fill="#fda57d"/>
      <path id="Path_23" data-name="Path 23" d="M570.72,628.57s22.85,1.87,16.8,43.49A32.819,32.819,0,0,1,576.65,679L563.8,635.49Z" transform="translate(-205 -84.5)" fill="#fda57d"/>
      <path id="Path_24" data-name="Path 24" d="M497.57,560.36S486.7,592,480.77,589c0,0,57.22,49.43,107.75,0,0,0-8.9-15.82-21.75-28.67Z" transform="translate(-205 -84.5)" fill="#333"/>
      <circle id="Ellipse_7" data-name="Ellipse 7" cx="42.51" cy="42.51" r="42.51" transform="translate(286.74 430.38)" fill="#333"/>
      <path id="Path_25" data-name="Path 25" d="M570.28,628.57H496.15l-6.92,29.66s-4.06,13.73,1,19.77,52.28,19.77,87,1a38.68,38.68,0,0,0,1-24.71c-4-13.84-1-1-1-1Z" transform="translate(-205 -84.5)" opacity="0.1"/>
      <path id="Path_26" data-name="Path 26" d="M571.27,628.57H497.13l-6.92,29.66s-4.06,13.73,1,19.77,52.28,19.77,87,1a38.68,38.68,0,0,0,1-24.71c-4-13.84-1-1-1-1Z" transform="translate(-205 -84.5)" opacity="0.1"/>
      <path id="Path_27" data-name="Path 27" d="M570.72,628.57H496.58l-6.92,29.66s-4.06,13.73,1,19.77,52.28,19.77,87,1a38.68,38.68,0,0,0,1-24.71c-4-13.84-1-1-1-1Z" transform="translate(-205 -84.5)" fill="#afafaf"/>
      <path id="Path_28" data-name="Path 28" d="M314.32,519.46H344v28.7a9.85,9.85,0,0,1-9.85,9.85h-10a9.85,9.85,0,0,1-9.85-9.85v-28.7Z" opacity="0.1"/>
      <path id="Path_29" data-name="Path 29" d="M314.32,518.37H344v28.7a9.85,9.85,0,0,1-9.85,9.85h-10a9.85,9.85,0,0,1-9.85-9.85v-28.7Z" fill="#fda57d"/>
      <path id="Path_30" data-name="Path 30" d="M519.38,607.14a42.679,42.679,0,0,0,29.66.08v-3.64H519.38Z" transform="translate(-205 -84.5)" opacity="0.1"/>
      <circle id="Ellipse_8" data-name="Ellipse 8" cx="42.51" cy="42.51" r="42.51" transform="translate(286.74 439.61)" fill="#fda57d"/>
      <path id="Path_31" data-name="Path 31" d="M493.62,550.47h81.06s-6.92-32.73-37.56-30.64S493.62,550.47,493.62,550.47Z" transform="translate(-205 -84.5)" fill="#333"/>
      <ellipse id="Ellipse_9" data-name="Ellipse 9" cx="3.95" cy="7.41" rx="3.95" ry="7.41" transform="translate(283.68 472.9)" fill="#fda57d"/>
      <ellipse id="Ellipse_10" data-name="Ellipse 10" cx="3.95" cy="7.41" rx="3.95" ry="7.41" transform="translate(366.71 472.9)" fill="#fda57d"/>
      <path id="Path_32" data-name="Path 32" d="M493.62,551.57h81.06s-6.92-32.73-37.56-30.64S493.62,551.57,493.62,551.57Z" transform="translate(-205 -84.5)" opacity="0.1"/>
      <g id="Group_3" data-name="Group 3" opacity="0.5">
        <path id="Path_33" data-name="Path 33" d="M551.94,328.35a98.85,98.85,0,1,1,154,82l-.06.44A33.838,33.838,0,0,1,694.67,418l-.13-.44c-4.63,4-24.12,10.33-46.51,10.27h-.49c-14.18,0-29.58-2.5-43.12-9.83,0,0-.12-.26-.3-.75a35.209,35.209,0,0,1-9.32-6.38q-.08-.57-.16-1.12a98.74,98.74,0,0,1-42.7-81.4Z" transform="translate(-205 -84.5)" fill="url(#linear-gradient-3)"/>
      </g>
      <circle id="Ellipse_11" data-name="Ellipse 11" cx="95.89" cy="95.89" r="95.89" transform="translate(349.9 147.97)" fill="#f5f5f5"/>
      <path id="Path_34" data-name="Path 34" d="M613.2,364.88s-22.85,1.87-16.8,43.49a32.821,32.821,0,0,0,10.87,6.92l12.85-43.49Z" transform="translate(-205 -84.5)" fill="#be7c5e"/>
      <path id="Path_35" data-name="Path 35" d="M687.33,364.88s22.85,1.87,16.8,43.49a32.821,32.821,0,0,1-10.87,6.92L680.41,371.8Z" transform="translate(-205 -84.5)" fill="#be7c5e"/>
      <path id="Path_36" data-name="Path 36" d="M614.18,296.67s-1.76,5.12-4.25,11c-5.44,13,.77,62.71,13.78,68,14.6,6,33.8,9.76,53.75,2.49,17.33-6.32,22.68-63,10.42-76.75-1.44-1.62-2.94-3.23-4.51-4.79Z" transform="translate(-205 -84.5)" fill="#333"/>
      <circle id="Ellipse_12" data-name="Ellipse 12" cx="42.51" cy="42.51" r="42.51" transform="translate(403.35 166.7)" fill="#333"/>
      <path id="Path_37" data-name="Path 37" d="M686.9,364.88H612.76l-6.92,29.66s-4.06,13.73,1,19.77,52.28,19.77,87,1a38.68,38.68,0,0,0,1-24.71c-4-13.84-1-1-1-1Z" transform="translate(-205 -84.5)" opacity="0.1"/>
      <path id="Path_38" data-name="Path 38" d="M687.88,364.88H613.74l-6.92,29.66s-4.06,13.73,1,19.77,52.28,19.77,87,1a38.68,38.68,0,0,0,1-24.71c-4-13.84-1-1-1-1Z" transform="translate(-205 -84.5)" opacity="0.1"/>
      <path id="Path_39" data-name="Path 39" d="M687.33,364.88H613.2l-6.92,29.66s-4.06,13.73,1,19.77,52.28,19.77,87,1a38.68,38.68,0,0,0,1-24.71c-4-13.84-1-1-1-1Z" transform="translate(-205 -84.5)" fill="#f55f44"/>
      <path id="Path_40" data-name="Path 40" d="M430.93,255.78h29.66v28.7a9.85,9.85,0,0,1-9.85,9.85h-10a9.85,9.85,0,0,1-9.85-9.85v-28.7Z" opacity="0.1"/>
      <path id="Path_41" data-name="Path 41" d="M430.93,254.68h29.66v28.7a9.85,9.85,0,0,1-9.85,9.85h-10a9.85,9.85,0,0,1-9.85-9.85v-28.7Z" fill="#be7c5e"/>
      <path id="Path_42" data-name="Path 42" d="M636,343.45a42.68,42.68,0,0,0,29.66.08v-3.64H636Z" transform="translate(-205 -84.5)" opacity="0.1"/>
      <circle id="Ellipse_13" data-name="Ellipse 13" cx="42.51" cy="42.51" r="42.51" transform="translate(403.35 175.92)" fill="#be7c5e"/>
      <path id="Path_43" data-name="Path 43" d="M610.23,286.79h81.06s-6.92-32.73-37.56-30.64S610.23,286.79,610.23,286.79Z" transform="translate(-205 -84.5)" fill="#333"/>
      <ellipse id="Ellipse_14" data-name="Ellipse 14" cx="3.95" cy="7.41" rx="3.95" ry="7.41" transform="translate(400.29 209.21)" fill="#be7c5e"/>
      <ellipse id="Ellipse_15" data-name="Ellipse 15" cx="3.95" cy="7.41" rx="3.95" ry="7.41" transform="translate(483.32 209.21)" fill="#be7c5e"/>
      <path id="Path_44" data-name="Path 44" d="M610.23,287.89h81.06s-6.92-32.73-37.56-30.64S610.23,287.89,610.23,287.89Z" transform="translate(-205 -84.5)" opacity="0.1"/>
      <g id="Group_4" data-name="Group 4" opacity="0.5">
        <path id="Path_45" data-name="Path 45" d="M210,242.61V385.33H434.86S451.46,418,480,427.5c0,0-9.11-23.14.4-42.17H543V242.61Z" transform="translate(-205 -84.5)" fill="url(#linear-gradient-4)"/>
      </g>
      <path id="Path_46" data-name="Path 46" d="M219,247.5v135H444s0,27,27,36c0,0-9-18,0-36h63v-135Z" transform="translate(-205 -84.5)" fill="#fff"/>
      <rect id="Rectangle_12" data-name="Rectangle 12" width="180" height="18" transform="translate(41 190)" fill="#afafaf"/>
      <rect id="Rectangle_13" data-name="Rectangle 13" width="243" height="18" transform="translate(41 217)" fill="#afafaf"/>
      <rect id="Rectangle_14" data-name="Rectangle 14" width="216" height="18" transform="translate(41 244)" fill="#afafaf"/>
      <g id="Group_5" data-name="Group 5" opacity="0.5">
        <path id="Path_47" data-name="Path 47" d="M975,517.61V660.33H750.15S733.55,693,705,702.5c0,0,9.11-23.14-.4-42.17H642V517.61Z" transform="translate(-205 -84.5)" fill="url(#linear-gradient-5)"/>
      </g>
      <path id="Path_48" data-name="Path 48" d="M966,522.5v135H741s0,27-27,36c0,0,9-18,0-36H651v-135Z" transform="translate(-205 -84.5)" fill="#fff"/>
      <rect id="Rectangle_15" data-name="Rectangle 15" width="180" height="18" transform="translate(483 465)" fill="#afafaf"/>
      <rect id="Rectangle_16" data-name="Rectangle 16" width="243" height="18" transform="translate(483 492)" fill="#afafaf"/>
      <rect id="Rectangle_17" data-name="Rectangle 17" width="216" height="18" transform="translate(483 519)" fill="#afafaf"/>
      <g id="Group_6" data-name="Group 6" opacity="0.5">
        <rect id="Rectangle_18" data-name="Rectangle 18" width="3" height="17" transform="translate(84 714)" fill="#47e6b1"/>
        <rect id="Rectangle_19" data-name="Rectangle 19" width="3" height="17" transform="translate(94 721) rotate(90)" fill="#47e6b1"/>
      </g>
      <g id="Group_7" data-name="Group 7" opacity="0.5">
        <rect id="Rectangle_20" data-name="Rectangle 20" width="3" height="17" transform="translate(633 192)" fill="#47e6b1"/>
        <rect id="Rectangle_21" data-name="Rectangle 21" width="3" height="17" transform="translate(643 199) rotate(90)" fill="#47e6b1"/>
      </g>
      <g id="Group_8" data-name="Group 8" opacity="0.5">
        <rect id="Rectangle_22" data-name="Rectangle 22" width="3" height="17" transform="translate(697 612)" fill="#47e6b1"/>
        <rect id="Rectangle_23" data-name="Rectangle 23" width="3" height="17" transform="translate(707 619) rotate(90)" fill="#47e6b1"/>
      </g>
      <g id="Group_9" data-name="Group 9" opacity="0.5">
        <rect id="Rectangle_24" data-name="Rectangle 24" width="3" height="17" transform="translate(508)" fill="#47e6b1"/>
        <rect id="Rectangle_25" data-name="Rectangle 25" width="3" height="17" transform="translate(518 7) rotate(90)" fill="#47e6b1"/>
      </g>
      <path id="Path_49" data-name="Path 49" d="M463.7,796.81a3.67,3.67,0,0,1-2-4.44,1.773,1.773,0,0,0,.08-.41h0a1.84,1.84,0,0,0-3.31-1.22h0a1.768,1.768,0,0,0-.2.36,3.67,3.67,0,0,1-4.44,2,1.771,1.771,0,0,0-.41-.08h0a1.84,1.84,0,0,0-1.22,3.31h0a1.769,1.769,0,0,0,.36.2,3.67,3.67,0,0,1,2,4.44,1.77,1.77,0,0,0-.08.41h0a1.84,1.84,0,0,0,3.31,1.22h0a1.772,1.772,0,0,0,.2-.36,3.67,3.67,0,0,1,4.44-2,1.774,1.774,0,0,0,.41.08h0a1.84,1.84,0,0,0,1.22-3.31h0a1.774,1.774,0,0,0-.36-.2Z" transform="translate(-205 -84.5)" fill="#4d8af0" opacity="0.5"/>
      <path id="Path_50" data-name="Path 50" d="M262.9,479.46a3.67,3.67,0,0,1-2-4.44,1.77,1.77,0,0,0,.08-.41h0a1.84,1.84,0,0,0-3.31-1.22h0a1.77,1.77,0,0,0-.2.36,3.67,3.67,0,0,1-4.44,2,1.77,1.77,0,0,0-.41-.08h0a1.84,1.84,0,0,0-1.22,3.31h0a1.768,1.768,0,0,0,.36.2,3.67,3.67,0,0,1,2,4.44,1.769,1.769,0,0,0-.08.41h0A1.84,1.84,0,0,0,257,485.3h0a1.77,1.77,0,0,0,.2-.36,3.67,3.67,0,0,1,4.44-2,1.771,1.771,0,0,0,.41.08h0a1.84,1.84,0,0,0,1.22-3.31h0a1.771,1.771,0,0,0-.37-.25Z" transform="translate(-205 -84.5)" fill="#4d8af0" opacity="0.5"/>
      <path id="Path_51" data-name="Path 51" d="M371.9,566.46a3.67,3.67,0,0,1-2-4.44,1.77,1.77,0,0,0,.08-.41h0a1.84,1.84,0,0,0-3.31-1.22h0a1.768,1.768,0,0,0-.2.36,3.67,3.67,0,0,1-4.44,2,1.771,1.771,0,0,0-.41-.08h0a1.84,1.84,0,0,0-1.22,3.31h0a1.773,1.773,0,0,0,.36.2,3.67,3.67,0,0,1,2,4.44,1.772,1.772,0,0,0-.08.41h0A1.84,1.84,0,0,0,366,572.3h0a1.774,1.774,0,0,0,.2-.36,3.67,3.67,0,0,1,4.44-2,1.771,1.771,0,0,0,.41.08h0a1.84,1.84,0,0,0,1.22-3.31h0A1.77,1.77,0,0,0,371.9,566.46Z" transform="translate(-205 -84.5)" fill="#4d8af0" opacity="0.5"/>
      <path id="Path_52" data-name="Path 52" d="M993.9,802.46a3.67,3.67,0,0,1-2-4.44,1.775,1.775,0,0,0,.08-.41h0a1.84,1.84,0,0,0-3.31-1.22h0a1.77,1.77,0,0,0-.2.36,3.67,3.67,0,0,1-4.44,2,1.772,1.772,0,0,0-.41-.08h0a1.84,1.84,0,0,0-1.22,3.31h0a1.773,1.773,0,0,0,.36.2,3.67,3.67,0,0,1,2,4.44,1.77,1.77,0,0,0-.08.41h0A1.84,1.84,0,0,0,988,808.3h0a1.767,1.767,0,0,0,.2-.36,3.67,3.67,0,0,1,4.44-2,1.767,1.767,0,0,0,.41.08h0a1.84,1.84,0,0,0,1.22-3.31h0a1.771,1.771,0,0,0-.37-.25Z" transform="translate(-205 -84.5)" fill="#4d8af0" opacity="0.5"/>
      <circle id="Ellipse_16" data-name="Ellipse 16" cx="6" cy="6" r="6" transform="translate(0 653)" fill="#f55f44" opacity="0.5"/>
      <circle id="Ellipse_17" data-name="Ellipse 17" cx="6" cy="6" r="6" transform="translate(677 58)" fill="#4d8af0" opacity="0.5"/>
      <circle id="Ellipse_18" data-name="Ellipse 18" cx="6" cy="6" r="6" transform="translate(98 70)" fill="#47e6b1" opacity="0.5"/>
      <circle id="Ellipse_19" data-name="Ellipse 19" cx="6" cy="6" r="6" transform="translate(683 340)" fill="#f55f44" opacity="0.5"/>
    </g>
    <text id="RespondMe" transform="translate(884.5 374)" fill="#fff" font-size="160" font-family="Inconsolata, monospace" font-weight="700"><tspan x="0" y="0">RespondMe</tspan></text>
    <rect id="Rectangle_26" data-name="Rectangle 26" width="190" height="118" rx="25" transform="translate(630.5 247)" fill="#ccc"/>
    <path id="Polygon_1" data-name="Polygon 1" d="M24.434,0,48.868,41.35H0Z" transform="matrix(-0.819, 0.574, -0.574, -0.819, 843.684, 365.354)" fill="#ccc"/>
    <line id="Line_1" data-name="Line 1" x2="87" transform="translate(663 282)" fill="none" stroke="#fff" stroke-width="5"/>
    <line id="Line_2" data-name="Line 2" x2="125" transform="translate(663 306)" fill="none" stroke="#fff" stroke-width="5"/>
    <line id="Line_3" data-name="Line 3" x2="105" transform="translate(663 330)" fill="none" stroke="#fff" stroke-width="5"/>
  </g>
</svg>
